<?xml version="1.0" encoding="UTF-8" standalone="no"?>
<!-- Created with Inkscape (http://www.inkscape.org/) -->

<svg
   xmlns:dc="http://purl.org/dc/elements/1.1/"
   xmlns:cc="http://creativecommons.org/ns#"
   xmlns:rdf="http://www.w3.org/1999/02/22-rdf-syntax-ns#"
   xmlns:svg="http://www.w3.org/2000/svg"
   xmlns="http://www.w3.org/2000/svg"
   xmlns:xlink="http://www.w3.org/1999/xlink"
   xmlns:sodipodi="http://sodipodi.sourceforge.net/DTD/sodipodi-0.dtd"
   xmlns:inkscape="http://www.inkscape.org/namespaces/inkscape"
   width="524.40942"
   height="372.04724"
   id="svg2"
   inkscape:label="Pozadí"
   version="1.1"
   inkscape:version="0.92.4 (5da689c313, 2019-01-14)"
   sodipodi:docname="template-0.svg">
  <defs
     id="defs3">
    <linearGradient
       id="linearGradient3783">
      <stop
         style="stop-color:#0ca19a;stop-opacity:1;"
         offset="0"
         id="stop3785" />
      <stop
         style="stop-color:#7e35d9;stop-opacity:1;"
         offset="1"
         id="stop3787" />
    </linearGradient>
    <linearGradient
       id="linearGradient3754">
      <stop
         style="stop-color:#164500;stop-opacity:1;"
         offset="0"
         id="stop3756" />
      <stop
         style="stop-color:#b3cf00;stop-opacity:1;"
         offset="1"
         id="stop3758" />
    </linearGradient>
    <linearGradient
       inkscape:collect="always"
       xlink:href="#linearGradient3754"
       id="linearGradient3760"
       x1="348.28159"
       y1="105.80376"
       x2="456.69827"
       y2="1093.6248"
       gradientUnits="userSpaceOnUse" />
    <linearGradient
       inkscape:collect="always"
       xlink:href="#linearGradient3783"
       id="linearGradient3789"
       x1="62.857143"
       y1="371.23734"
       x2="962.85712"
       y2="371.23734"
       gradientUnits="userSpaceOnUse"
       gradientTransform="matrix(0.50204082,0,0,0.50204082,-9.1078774,674.49318)" />
  </defs>
  <sodipodi:namedview
     id="base"
     pagecolor="#cbece6"
     bordercolor="#666666"
     borderopacity="1.0"
     inkscape:pageopacity="0.81568627"
     inkscape:pageshadow="2"
     inkscape:zoom="1.979899"
     inkscape:cx="320.47089"
     inkscape:cy="217.26905"
     inkscape:document-units="px"
     inkscape:current-layer="layer1"
     showgrid="false"
     inkscape:window-width="1366"
     inkscape:window-height="712"
     inkscape:window-x="0"
     inkscape:window-y="0"
     inkscape:window-maximized="1" />
  <metadata
     id="metadata6">
    <rdf:RDF>
      <cc:Work
         rdf:about="">
        <dc:format>image/svg+xml</dc:format>
        <dc:type
           rdf:resource="http://purl.org/dc/dcmitype/StillImage" />
        <dc:title />
      </cc:Work>
    </rdf:RDF>
  </metadata>
  <g
     inkscape:label="Vrstva 1"
     inkscape:groupmode="layer"
     id="layer1"
     transform="translate(0,-680.31494)">
    <rect
       style="fill:url(#linearGradient3789);fill-opacity:1;fill-rule:nonzero;stroke:none"
       id="rect3781"
       width="451.83673"
       height="319.87173"
       x="22.448977"
       y="700.93353" />
    <path
       style="fill:none;stroke:#574112;stroke-width:5.02040815;stroke-linecap:butt;stroke-linejoin:miter;stroke-miterlimit:4;stroke-opacity:1;stroke-dasharray:none"
       d="m 173.06122,900.31555 153.48107,-174.9971 5.7376,255.32366"
       id="panel-stand"
       inkscape:connector-curvature="0" />
    <path
       sodipodi:type="arc"
       style="fill:url(#linearGradient3760);fill-opacity:1;fill-rule:nonzero;stroke:none"
       id="path2984"
       sodipodi:cx="360"
       sodipodi:cy="634.09448"
       sodipodi:rx="560"
       sodipodi:ry="364.28571"
       d="m 920,634.09448 c 0,201.18944 -250.72054,364.28571 -560,364.28571 -309.27946,0 -560,-163.09627 -560,-364.28571 0,-201.18944 250.72054,-364.2857 560,-364.2857 309.27946,0 560,163.09626 560,364.2857 z"
       transform="matrix(0.67493751,0,0,0.7304202,-158.13202,674.55372)" />
    <rect
       ry="15.877328"
       transform="matrix(0.96824083,0.25001939,-0.15120481,0.98850246,0,0)"
       style="fill:#d0774e;fill-opacity:1;fill-rule:nonzero;stroke:none"
       id="board"
       width="237.81975"
       height="96.808479"
       x="308.20908"
       y="668.48065" />
    <g
       transform="matrix(0.27214794,0.1295179,-0.1295179,0.27214794,361.39671,852.52231)"
       id="bulb-card">
      <rect
         rx="25.621738"
         ry="24.643332"
         transform="matrix(0.96106899,-0.27630853,0.29762548,0.95468271,0,0)"
         y="17.621172"
         x="66.964455"
         height="184.85498"
         width="157.17302"
         id="card-board-shadow"
         style="fill:#3e3e3e;fill-opacity:1;fill-rule:nonzero;stroke:none" />
      <rect
         style="fill:#089d43;fill-opacity:1;fill-rule:nonzero;stroke:none"
         id="card-board"
         width="157.17302"
         height="184.85498"
         x="89.22361"
         y="-7.4578309"
         transform="matrix(0.98296751,-0.18377941,0.20560655,0.97863474,0,0)"
         ry="24.643332"
         rx="25.621738" />
      <g
         style="stroke:#c8c8c8;stroke-width:5.97560978;stroke-linecap:round;stroke-linejoin:round;stroke-miterlimit:4;stroke-opacity:1;stroke-dasharray:none"
         id="bulb-with-rays">
        <path
           sodipodi:nodetypes="csssssssssc"
           transform="matrix(1.9536604,-0.38827386,0.38827386,1.9536604,-238.29909,400.73581)"
           inkscape:connector-curvature="0"
           id="path6993"
           d="m 237.10317,-110.92094 c 0.87321,-3.02259 -3.1204,-13.72054 -3.06095,-15.07264 0.0432,-0.98166 10.88368,0.83121 12.77746,0.15833 2.75664,-0.97946 -0.51297,17.09702 -1.23521,17.42 -2.02881,0.90726 -6.88068,2.49359 -6.56365,3.83822 0.30312,1.28568 8.24591,0.84035 7.60284,2.29322 -0.97127,2.19439 -9.60736,5.491415 -10.21927,4.180414 -2.33671,-5.006314 -3.83441,-10.562474 -3.84505,-10.575574 -46.75357,-57.58737 61.95662,-62.03771 16.94444,-0.75472 0,0 0.56872,4.88725 0.69817,8.84037 0.11074,3.382021 -5.2816,5.625037 -5.2816,5.625037"
           style="fill:none;stroke:#c8c8c8;stroke-width:3;stroke-linecap:round;stroke-linejoin:round;stroke-miterlimit:4;stroke-opacity:1;stroke-dasharray:none" />
        <g
           style="stroke:#c8c8c8;stroke-width:5.97560978;stroke-linecap:round;stroke-linejoin:round;stroke-miterlimit:4;stroke-opacity:1;stroke-dasharray:none"
           id="g7035"
           transform="translate(10.230648,-5.4259499)">
          <path
             inkscape:connector-curvature="0"
             id="path7007"
             d="m 129.18013,78.071787 c -5.89844,1.744705 -13.12041,5.46158 -17.95482,6.969201"
             style="fill:none;stroke:#c8c8c8;stroke-width:5.97560978;stroke-linecap:round;stroke-linejoin:round;stroke-miterlimit:4;stroke-opacity:1;stroke-dasharray:none" />
          <path
             inkscape:connector-curvature="0"
             id="path7009"
             d="M 116.49547,43.141146 C 116.41988,42.259121 99.337132,39.71473 99.062993,39.619925"
             style="fill:none;stroke:#c8c8c8;stroke-width:5.97560978;stroke-linecap:round;stroke-linejoin:round;stroke-miterlimit:4;stroke-opacity:1;stroke-dasharray:none"
             sodipodi:nodetypes="cc" />
          <path
             inkscape:connector-curvature="0"
             id="path7011"
             d="M 128.61482,9.0113845 C 125.60716,5.0141439 120.14437,-1.6834671 118.67768,-3.5917912"
             style="fill:none;stroke:#c8c8c8;stroke-width:5.97560978;stroke-linecap:round;stroke-linejoin:round;stroke-miterlimit:4;stroke-opacity:1;stroke-dasharray:none" />
          <path
             inkscape:connector-curvature="0"
             id="path7013"
             d="m 173.48638,-7.6164349 c -1.68676,-6.0781511 -1.06376,-10.4122031 -1.2809,-15.9349271"
             style="fill:none;stroke:#c8c8c8;stroke-width:5.97560978;stroke-linecap:round;stroke-linejoin:round;stroke-miterlimit:4;stroke-opacity:1;stroke-dasharray:none" />
          <path
             inkscape:connector-curvature="0"
             id="path7015"
             d="m 203.21254,1.871632 c -0.56619,-2.41770551 3.81891,-8.5593725 11.71703,-13.454597"
             style="fill:none;stroke:#c8c8c8;stroke-width:5.97560978;stroke-linecap:round;stroke-linejoin:round;stroke-miterlimit:4;stroke-opacity:1;stroke-dasharray:none" />
          <path
             inkscape:connector-curvature="0"
             id="path7017"
             d="m 223.63635,31.543457 c 0.44362,-0.535129 6.08047,-2.950009 13.42742,-3.238906"
             style="fill:none;stroke:#c8c8c8;stroke-width:5.97560978;stroke-linecap:round;stroke-linejoin:round;stroke-miterlimit:4;stroke-opacity:1;stroke-dasharray:none" />
          <path
             inkscape:connector-curvature="0"
             id="path7019"
             d="m 222.68074,64.299464 c 4.0715,-2.248947 13.42378,0.794657 20.24567,6.12158"
             style="fill:none;stroke:#c8c8c8;stroke-width:5.97560978;stroke-linecap:round;stroke-linejoin:round;stroke-miterlimit:4;stroke-opacity:1;stroke-dasharray:none" />
        </g>
      </g>
    </g>
    <g
       transform="matrix(0.36897097,-6.5812667e-4,6.5812667e-4,0.36897097,88.098265,559.06615)"
       id="sun">
      <g
         id="sun-body">
        <path
           inkscape:connector-curvature="0"
           id="path6433"
           d="m -65.957129,417.55324 c -64.738611,12.86627 -106.789461,75.77745 -93.923191,140.51606 12.86626,64.7386 75.777443,106.78945 140.516054,93.92319 C 45.374335,639.12623 87.425188,576.21504 74.558926,511.47644 61.692662,446.73782 -1.2185285,404.68698 -65.957129,417.55324 z"
           style="fill:#f0c000;fill-opacity:1;fill-rule:nonzero;stroke:#574112;stroke-width:0;stroke-linecap:round;stroke-linejoin:round;stroke-miterlimit:4;stroke-opacity:1;stroke-dasharray:none" />
        <path
           inkscape:transform-center-y="-3.2979549"
           inkscape:transform-center-x="6.5597732"
           transform="matrix(1.9536604,-0.38827386,0.38827386,1.9536604,-238.29909,400.73581)"
           d="m 170.24389,33.103569 c 2.39692,4.076098 -35.44406,28.383607 -33.98286,32.880795 1.47384,4.536099 46.566,2.757731 47.1024,7.497002 0.5318,4.698617 -43.92441,11.513318 -44.41871,16.216028 -0.49857,4.743399 41.41849,21.459406 39.98088,26.007126 -1.42528,4.5087 -44.80984,-7.34773 -47.17417,-3.25264 -2.38478,4.13052 29.10935,36.45056 25.9463,40.02038 -3.13591,3.53919 -37.94723,-24.93829 -41.77277,-22.1589 -3.85865,2.80345 11.76692,45.13909 7.42537,47.11375 -4.30432,1.95772 -24.52321,-38.21679 -29.148499,-37.23368 -4.665308,0.99162 -7.610096,46.02265 -12.379473,46.06072 -4.728466,0.0377 -6.858896,-44.88726 -11.484176,-45.87041 -4.6653,-0.99167 -25.671265,38.94847 -30.043793,37.04337 -4.335021,-1.88876 11.99138,-43.79632 8.165861,-46.57575 C 44.601633,128.04789 9.1666124,155.99112 5.9469828,152.47226 2.754971,148.98358 34.71522,117.33967 32.350931,113.24455 29.966185,109.11401 -13.770854,120.2287 -15.280882,115.70452 -16.777956,111.21914 25.289923,95.310395 24.79567,90.60768 24.29714,85.864276 -20.179386,78.228596 -19.718714,73.481367 -19.261994,68.774858 25.639598,71.352041 27.100842,66.854866 28.574728,62.318781 -8.9508894,37.253008 -6.5991724,33.103569 -4.2676284,28.989725 35.703782,49.607221 38.86786,46.093189 42.059315,42.548752 17.973126,4.3869853 21.809255,1.5528144 25.612477,-1.257045 53.742287,33.835812 58.062102,31.91253 c 4.357191,-1.939922 -2.124849,-46.599166 2.532391,-47.628016 4.617289,-1.020025 16.041598,42.48032 20.770214,42.480342 4.76953,2.2e-5 17.012443,-43.434711 21.685513,-42.480342 4.63299,0.946182 -2.62357,45.332409 1.69622,47.255731 4.35718,1.939962 33.20813,-32.7599996 37.08902,-29.9874311 3.84759,2.7487854 -20.83511,40.3461131 -17.67106,43.8601751 3.19142,3.544465 43.66183,-16.420786 46.07949,-12.30942 z"
           inkscape:randomized="0"
           inkscape:rounded="0.1"
           inkscape:flatsided="false"
           sodipodi:arg2="-0.32213363"
           sodipodi:arg1="-0.52359878"
           sodipodi:r2="57.390732"
           sodipodi:r1="102.10039"
           sodipodi:cy="84.153763"
           sodipodi:cx="81.822357"
           sodipodi:sides="15"
           id="path6944"
           style="fill:#f0c000;fill-opacity:1;fill-rule:nonzero;stroke:#574112;stroke-width:0;stroke-linecap:round;stroke-linejoin:round;stroke-miterlimit:4;stroke-opacity:1;stroke-dasharray:none"
           sodipodi:type="star" />
      </g>
      <g
         id="sun-googles"
         transform="translate(-6.306493,-5.9266931)">
        <path
           sodipodi:nodetypes="sss"
           inkscape:connector-curvature="0"
           id="path6946"
           d="m -51.203202,514.21392 c -12.122955,-65.1149 -95.091848,-18.48091 -82.340698,17.92478 17.30338,49.40271 92.265239,35.38195 82.340698,-17.92478 z"
           style="fill:#7c3e00;fill-opacity:1;stroke:#000000;stroke-width:11.02078629;stroke-linecap:butt;stroke-linejoin:miter;stroke-miterlimit:4;stroke-opacity:1;stroke-dasharray:none" />
        <path
           style="fill:#7c3e00;fill-opacity:1;stroke:#000000;stroke-width:11.02078629;stroke-linecap:butt;stroke-linejoin:miter;stroke-miterlimit:4;stroke-opacity:1;stroke-dasharray:none"
           d="M -30.45737,510.09086 C -44.15434,445.28878 50.341252,456.65317 52.479936,495.168 55.382138,547.43283 -19.24426,563.1415 -30.45737,510.09086 z"
           id="path6948"
           inkscape:connector-curvature="0"
           sodipodi:nodetypes="sss" />
        <path
           transform="matrix(1.9536604,-0.38827386,0.38827386,1.9536604,-238.29909,400.73581)"
           inkscape:connector-curvature="0"
           id="path6950"
           d="m 91.418805,66.476096 c -4.203987,0.50051 -7.54647,0.457536 -12.12183,0"
           style="fill:none;stroke:#000000;stroke-width:5;stroke-linecap:butt;stroke-linejoin:miter;stroke-miterlimit:4;stroke-opacity:1;stroke-dasharray:none" />
      </g>
      <path
         style="fill:#e0eae2;fill-opacity:1;stroke:#a01411;stroke-width:11.95121956;stroke-linecap:round;stroke-linejoin:round;stroke-miterlimit:4;stroke-opacity:1;stroke-dasharray:none"
         d="m 39.009981,557.39989 c -2.526752,46.22845 -28.65596,54.08911 -67.357032,63.64705 -36.785229,9.08474 -69.363805,1.55341 -78.914969,-4.83076 -5.47759,-3.66129 -17.89563,-27.6207 -11.41151,-26.4523 37.261453,6.71444 146.781322,-24.12776 157.683511,-32.36399 z"
         id="sun-mouth"
         inkscape:connector-curvature="0"
         sodipodi:nodetypes="csssc" />
    </g>
    <text
       xml:space="preserve"
       style="font-style:normal;font-variant:normal;font-weight:bold;font-stretch:normal;line-height:0%;font-family:Impact;-inkscape-font-specification:'Impact Bold';text-align:center;letter-spacing:0px;word-spacing:0px;text-anchor:middle;fill:#6b4219;fill-opacity:1;stroke:none"
       x="539.4729"
       y="673.80603"
       id="panel-text"
       transform="rotate(18.149397)"><tspan
         sodipodi:role="line"
         x="539.4729"
         y="673.80603"
         id="tspan3030"
         style="font-size:31.99999809px;line-height:1.25"><tspan
           x="539.4729"
           y="673.80603"
           id="tspan3032"
           style="fill:#6b4219;fill-opacity:1">Lorem Ipsum</tspan></tspan></text>
    <image
       sodipodi:absref="/home/martin/public_html/streeting/sample/full-sample/templates/../img/no-image.jpg"
       xlink:href="../img/no-image.jpg"
       y="823.72449"
       x="124.06032"
       id="picture"
       height="48"
       width="150"
       transform="matrix(0.9983829,-0.05684697,0.05700219,0.99837405,0,0)" />
    <text
       xml:space="preserve"
       style="font-style:normal;font-variant:normal;font-weight:normal;font-stretch:normal;line-height:0%;font-family:Niconne;-inkscape-font-specification:Niconne;letter-spacing:0px;word-spacing:0px;fill:#383c09;fill-opacity:1;stroke:none"
       x="11.10345"
       y="1034.4231"
       id="copyright"><tspan
         sodipodi:role="line"
         x="11.10345"
         y="1034.4231"
         id="tspan3812"
         style="font-size:20px;line-height:1.25"><tspan
           x="11.10345"
           y="1034.4231"
           id="tspan3814">copyright </tspan></tspan></text>
    <text
       id="the-date"
       y="1047.5551"
       x="519.36169"
       style="font-style:normal;font-variant:normal;font-weight:bold;font-stretch:normal;line-height:0%;font-family:Impact;-inkscape-font-specification:'Impact Bold';text-align:end;letter-spacing:1px;word-spacing:0px;text-anchor:end;fill:#178a97;fill-opacity:1;stroke:none"
       xml:space="preserve"><tspan
         id="tspan3033"
         y="1047.5551"
         x="520.36169"
         sodipodi:role="line"
         style="font-size:14px;line-height:1.25">date<tspan
   id="tspan3035"
   y="1047.5551"
   x="491.431"
   style="font-style:normal;font-variant:normal;font-weight:bold;font-stretch:normal;font-size:14px;font-family:Impact;-inkscape-font-specification:'Impact Bold';text-align:end;letter-spacing:1px;text-anchor:end;fill:#178a97;fill-opacity:1" /></tspan></text>
  </g>
</svg>
